# Blender v2.83.5 OBJ File: 'terrian.blend'
# www.blender.org
mtllib terrian.mtl
o Terrian_Grid
v -0.000000 0.000000 10.000000
v 1.111111 0.000000 10.000000
v 2.222222 0.000000 10.000000
v 3.333333 0.000000 10.000000
v 4.444444 0.000000 10.000000
v 5.555556 0.000000 10.000000
v 6.666666 0.000000 10.000000
v 7.777778 0.000000 10.000000
v 8.888888 0.000000 10.000000
v 10.000000 0.000000 10.000000
v -0.000000 0.000000 8.888889
v 1.111111 0.000000 8.888889
v 2.222222 0.000000 8.888889
v 3.333333 0.000000 8.888889
v 4.444444 0.000000 8.888889
v 5.555556 0.000000 8.888889
v 6.666666 0.000000 8.888889
v 7.777778 0.376742 8.888889
v 8.888888 0.376742 8.888889
v 10.000000 0.000000 8.888889
v -0.000000 0.000000 7.777778
v 1.111111 0.000000 7.777778
v 2.222222 0.421759 7.777778
v 3.333333 0.421759 7.777778
v 4.444444 0.421759 7.777778
v 5.555556 0.000000 7.777778
v 6.666666 0.000000 7.777778
v 7.777778 0.376742 7.777778
v 8.888888 0.376742 7.777778
v 10.000000 0.000000 7.777778
v -0.000000 0.000000 6.666667
v 1.111111 0.000000 6.666667
v 2.222222 0.421759 6.666667
v 3.333333 0.421759 6.666667
v 4.444444 0.421759 6.666667
v 5.555556 0.000000 6.666667
v 6.666666 0.000000 6.666667
v 7.777778 0.376742 6.666667
v 8.888888 0.376742 6.666667
v 10.000000 0.000000 6.666667
v -0.000000 0.000000 5.555556
v 1.111111 0.000000 5.555556
v 2.222222 0.421759 5.555556
v 3.333333 0.421759 5.555556
v 4.444444 0.421759 5.555556
v 5.555556 0.000000 5.555556
v 6.666666 0.000000 5.555556
v 7.777778 0.000000 5.555556
v 8.888888 0.000000 5.555556
v 10.000000 0.000000 5.555556
v -0.000000 0.000000 4.444444
v 1.111111 0.000000 4.444444
v 2.222222 0.000000 4.444444
v 3.333333 0.000000 4.444444
v 4.444444 0.000000 4.444444
v 5.555556 0.000000 4.444444
v 6.666666 0.000000 4.444444
v 7.777778 0.000000 4.444444
v 8.888888 0.000000 4.444444
v 10.000000 0.000000 4.444444
v -0.000000 0.000000 3.333334
v 1.111111 0.000000 3.333334
v 2.222222 0.000000 3.333334
v 3.333333 0.000000 3.333334
v 4.444444 0.000000 3.333334
v 5.555556 0.000000 3.333334
v 6.666666 0.000000 3.333334
v 7.777778 0.000000 3.333334
v 8.888888 0.000000 3.333334
v 10.000000 0.000000 3.333334
v -0.000000 0.000000 2.222222
v 1.111111 0.000000 2.222222
v 2.222222 0.000000 2.222222
v 3.333333 0.000000 2.222222
v 4.444444 0.214612 2.222222
v 5.555556 0.214612 2.222222
v 6.666666 0.000000 2.222222
v 7.777778 0.000000 2.222222
v 8.888888 0.000000 2.222222
v 10.000000 0.000000 2.222222
v -0.000000 0.000000 1.111112
v 1.111111 0.000000 1.111112
v 2.222222 0.000000 1.111112
v 3.333333 0.000000 1.111112
v 4.444444 0.214612 1.111112
v 5.555556 0.214612 1.111112
v 6.666666 0.000000 1.111112
v 7.777778 0.000000 1.111112
v 8.888888 0.000000 1.111112
v 10.000000 0.000000 1.111112
v -0.000000 0.000000 0.000000
v 1.111111 0.000000 0.000000
v 2.222222 0.000000 0.000000
v 3.333333 0.000000 0.000000
v 4.444444 0.000000 0.000000
v 5.555556 0.000000 0.000000
v 6.666666 0.000000 0.000000
v 7.777778 0.000000 0.000000
v 8.888888 0.000000 0.000000
v 10.000000 0.000000 0.000000
vt 0.000000 0.000000
vt 0.111111 0.000000
vt 0.111111 0.111111
vt 0.000000 0.111111
vt 0.222222 0.000000
vt 0.222222 0.111111
vt 0.333333 0.000000
vt 0.333333 0.111111
vt 0.444444 0.000000
vt 0.444444 0.111111
vt 0.555556 0.000000
vt 0.555556 0.111111
vt 0.666667 0.000000
vt 0.666667 0.111111
vt 0.777778 0.000000
vt 0.777778 0.111111
vt 0.888889 0.000000
vt 0.888889 0.111111
vt 1.000000 0.000000
vt 1.000000 0.111111
vt 0.111111 0.222222
vt 0.000000 0.222222
vt 0.222222 0.222222
vt 0.333333 0.222222
vt 0.444444 0.222222
vt 0.555556 0.222222
vt 0.666667 0.222222
vt 0.777778 0.222222
vt 0.888889 0.222222
vt 1.000000 0.222222
vt 0.111111 0.333333
vt 0.000000 0.333333
vt 0.222222 0.333333
vt 0.333333 0.333333
vt 0.444444 0.333333
vt 0.555556 0.333333
vt 0.666667 0.333333
vt 0.777778 0.333333
vt 0.888889 0.333333
vt 1.000000 0.333333
vt 0.111111 0.444444
vt 0.000000 0.444444
vt 0.222222 0.444444
vt 0.333333 0.444444
vt 0.444444 0.444444
vt 0.555556 0.444444
vt 0.666667 0.444444
vt 0.777778 0.444444
vt 0.888889 0.444444
vt 1.000000 0.444444
vt 0.111111 0.555556
vt 0.000000 0.555556
vt 0.222222 0.555556
vt 0.333333 0.555556
vt 0.444444 0.555556
vt 0.555556 0.555556
vt 0.666667 0.555556
vt 0.777778 0.555556
vt 0.888889 0.555556
vt 1.000000 0.555556
vt 0.111111 0.666667
vt 0.000000 0.666667
vt 0.222222 0.666667
vt 0.333333 0.666667
vt 0.444444 0.666667
vt 0.555556 0.666667
vt 0.666667 0.666667
vt 0.777778 0.666667
vt 0.888889 0.666667
vt 1.000000 0.666667
vt 0.111111 0.777778
vt 0.000000 0.777778
vt 0.222222 0.777778
vt 0.333333 0.777778
vt 0.444444 0.777778
vt 0.555556 0.777778
vt 0.666667 0.777778
vt 0.777778 0.777778
vt 0.888889 0.777778
vt 1.000000 0.777778
vt 0.111111 0.888889
vt 0.000000 0.888889
vt 0.222222 0.888889
vt 0.333333 0.888889
vt 0.444444 0.888889
vt 0.555556 0.888889
vt 0.666667 0.888889
vt 0.777778 0.888889
vt 0.888889 0.888889
vt 1.000000 0.888889
vt 0.111111 1.000000
vt 0.000000 1.000000
vt 0.222222 1.000000
vt 0.333333 1.000000
vt 0.444444 1.000000
vt 0.555556 1.000000
vt 0.666667 1.000000
vt 0.777778 1.000000
vt 0.888889 1.000000
vt 1.000000 1.000000
vn 0.0000 1.0000 0.0000
vn -0.1649 0.9724 0.1649
vn 0.0000 0.9470 0.3211
vn 0.1649 0.9724 0.1649
vn -0.1833 0.9658 0.1833
vn 0.0000 0.9349 0.3549
vn 0.1833 0.9658 0.1833
vn -0.3211 0.9470 0.0000
vn 0.3211 0.9470 0.0000
vn -0.3549 0.9349 0.0000
vn 0.3549 0.9349 0.0000
vn -0.1649 0.9724 -0.1649
vn 0.0000 0.9470 -0.3211
vn 0.1649 0.9724 -0.1649
vn -0.1833 0.9658 -0.1833
vn 0.0000 0.9349 -0.3549
vn 0.1833 0.9658 -0.1833
vn -0.0957 0.9908 0.0957
vn 0.0000 0.9819 0.1896
vn 0.0957 0.9908 0.0957
vn -0.1896 0.9819 0.0000
vn 0.1896 0.9819 0.0000
vn -0.0957 0.9908 -0.0957
vn 0.0000 0.9819 -0.1896
vn 0.0957 0.9908 -0.0957
usemtl None
s off
f 1/1/1 2/2/1 12/3/1 11/4/1
f 2/2/1 3/5/1 13/6/1 12/3/1
f 3/5/1 4/7/1 14/8/1 13/6/1
f 4/7/1 5/9/1 15/10/1 14/8/1
f 5/9/1 6/11/1 16/12/1 15/10/1
f 6/11/1 7/13/1 17/14/1 16/12/1
f 7/13/2 8/15/2 18/16/2 17/14/2
f 8/15/3 9/17/3 19/18/3 18/16/3
f 9/17/4 10/19/4 20/20/4 19/18/4
f 11/4/1 12/3/1 22/21/1 21/22/1
f 12/3/5 13/6/5 23/23/5 22/21/5
f 13/6/6 14/8/6 24/24/6 23/23/6
f 14/8/6 15/10/6 25/25/6 24/24/6
f 15/10/7 16/12/7 26/26/7 25/25/7
f 16/12/1 17/14/1 27/27/1 26/26/1
f 17/14/8 18/16/8 28/28/8 27/27/8
f 18/16/1 19/18/1 29/29/1 28/28/1
f 19/18/9 20/20/9 30/30/9 29/29/9
f 21/22/1 22/21/1 32/31/1 31/32/1
f 22/21/10 23/23/10 33/33/10 32/31/10
f 23/23/1 24/24/1 34/34/1 33/33/1
f 24/24/1 25/25/1 35/35/1 34/34/1
f 25/25/11 26/26/11 36/36/11 35/35/11
f 26/26/1 27/27/1 37/37/1 36/36/1
f 27/27/8 28/28/8 38/38/8 37/37/8
f 28/28/1 29/29/1 39/39/1 38/38/1
f 29/29/9 30/30/9 40/40/9 39/39/9
f 31/32/1 32/31/1 42/41/1 41/42/1
f 32/31/10 33/33/10 43/43/10 42/41/10
f 33/33/1 34/34/1 44/44/1 43/43/1
f 34/34/1 35/35/1 45/45/1 44/44/1
f 35/35/11 36/36/11 46/46/11 45/45/11
f 36/36/1 37/37/1 47/47/1 46/46/1
f 37/37/12 38/38/12 48/48/12 47/47/12
f 38/38/13 39/39/13 49/49/13 48/48/13
f 39/39/14 40/40/14 50/50/14 49/49/14
f 41/42/1 42/41/1 52/51/1 51/52/1
f 42/41/15 43/43/15 53/53/15 52/51/15
f 43/43/16 44/44/16 54/54/16 53/53/16
f 44/44/16 45/45/16 55/55/16 54/54/16
f 45/45/17 46/46/17 56/56/17 55/55/17
f 46/46/1 47/47/1 57/57/1 56/56/1
f 47/47/1 48/48/1 58/58/1 57/57/1
f 48/48/1 49/49/1 59/59/1 58/58/1
f 49/49/1 50/50/1 60/60/1 59/59/1
f 51/52/1 52/51/1 62/61/1 61/62/1
f 52/51/1 53/53/1 63/63/1 62/61/1
f 53/53/1 54/54/1 64/64/1 63/63/1
f 54/54/1 55/55/1 65/65/1 64/64/1
f 55/55/1 56/56/1 66/66/1 65/65/1
f 56/56/1 57/57/1 67/67/1 66/66/1
f 57/57/1 58/58/1 68/68/1 67/67/1
f 58/58/1 59/59/1 69/69/1 68/68/1
f 59/59/1 60/60/1 70/70/1 69/69/1
f 61/62/1 62/61/1 72/71/1 71/72/1
f 62/61/1 63/63/1 73/73/1 72/71/1
f 63/63/1 64/64/1 74/74/1 73/73/1
f 64/64/18 65/65/18 75/75/18 74/74/18
f 65/65/19 66/66/19 76/76/19 75/75/19
f 66/66/20 67/67/20 77/77/20 76/76/20
f 67/67/1 68/68/1 78/78/1 77/77/1
f 68/68/1 69/69/1 79/79/1 78/78/1
f 69/69/1 70/70/1 80/80/1 79/79/1
f 71/72/1 72/71/1 82/81/1 81/82/1
f 72/71/1 73/73/1 83/83/1 82/81/1
f 73/73/1 74/74/1 84/84/1 83/83/1
f 74/74/21 75/75/21 85/85/21 84/84/21
f 75/75/1 76/76/1 86/86/1 85/85/1
f 76/76/22 77/77/22 87/87/22 86/86/22
f 77/77/1 78/78/1 88/88/1 87/87/1
f 78/78/1 79/79/1 89/89/1 88/88/1
f 79/79/1 80/80/1 90/90/1 89/89/1
f 81/82/1 82/81/1 92/91/1 91/92/1
f 82/81/1 83/83/1 93/93/1 92/91/1
f 83/83/1 84/84/1 94/94/1 93/93/1
f 84/84/23 85/85/23 95/95/23 94/94/23
f 85/85/24 86/86/24 96/96/24 95/95/24
f 86/86/25 87/87/25 97/97/25 96/96/25
f 87/87/1 88/88/1 98/98/1 97/97/1
f 88/88/1 89/89/1 99/99/1 98/98/1
f 89/89/1 90/90/1 100/100/1 99/99/1
