# Blender v3.1.2 OBJ File: 'world.blend'
# www.blender.org
mtllib world.mtl
o Plane_Plane.002
v 0.000000 0.000000 10.000000
v 10.000000 0.000000 10.000000
v 0.000000 0.000000 0.000000
v 10.000000 0.000000 0.000000
v 0.000000 0.000000 1.000000
v 0.000000 0.000000 2.000000
v 0.000000 0.000000 3.000000
v 0.000000 0.000000 4.000000
v 0.000000 0.000000 5.000000
v 0.000000 0.000000 6.000000
v 0.000000 0.000000 7.000000
v 0.000000 0.000000 8.000000
v 0.000000 0.000000 9.000000
v 1.000000 0.000000 10.000000
v 2.000000 0.000000 10.000000
v 3.000000 0.000000 10.000000
v 4.000000 0.000000 10.000000
v 5.000000 0.000000 10.000000
v 6.000000 0.000000 10.000000
v 7.000000 0.000000 10.000000
v 8.000000 0.000000 10.000000
v 9.000000 0.000000 10.000000
v 10.000000 0.000000 9.000000
v 10.000000 0.000000 8.000000
v 10.000000 0.000000 7.000000
v 10.000000 0.000000 6.000000
v 10.000000 0.000000 5.000000
v 10.000000 0.000000 4.000000
v 10.000000 0.000000 3.000000
v 10.000000 0.000000 2.000000
v 10.000000 0.000000 1.000000
v 9.000000 0.000000 0.000000
v 8.000000 0.000000 0.000000
v 7.000000 0.000000 0.000000
v 6.000000 0.000000 0.000000
v 5.000000 0.000000 0.000000
v 4.000000 0.000000 0.000000
v 3.000000 0.000000 0.000000
v 2.000000 0.000000 0.000000
v 1.000000 0.000000 0.000000
v 1.000000 0.000000 9.000000
v 1.000000 0.000000 8.000000
v 1.000000 0.000000 7.000000
v 1.000000 0.000000 6.000000
v 1.000000 0.000000 5.000000
v 1.000000 0.000000 4.000000
v 1.000000 0.000000 3.000000
v 1.000000 0.000000 2.000000
v 1.000000 0.000000 1.000000
v 2.000000 0.000000 9.000000
v 2.000000 0.000000 8.000000
v 2.000000 0.000000 7.000000
v 2.000000 0.000000 6.000000
v 2.000000 0.000000 5.000000
v 2.000000 0.000000 4.000000
v 2.000000 0.000000 3.000000
v 2.000000 0.000000 2.000000
v 2.000000 0.000000 1.000000
v 3.000000 0.000000 9.000000
v 3.000000 0.000000 8.000000
v 3.000000 0.000000 7.000000
v 3.000000 0.000000 6.000000
v 3.000000 0.000000 5.000000
v 3.000000 0.000000 4.000000
v 3.000000 0.000000 3.000000
v 3.000000 0.000000 2.000000
v 3.000000 0.000000 1.000000
v 4.000000 0.000000 9.000000
v 4.000000 0.000000 8.000000
v 4.000000 0.523986 7.000000
v 4.000000 0.523986 6.000000
v 4.000000 0.523986 5.000000
v 4.000000 0.523986 4.000000
v 4.000000 0.000000 3.000000
v 4.000000 0.000000 2.000000
v 4.000000 0.000000 1.000000
v 5.000000 0.000000 9.000000
v 5.000000 0.000000 8.000000
v 5.000000 0.523986 7.000000
v 5.000000 0.523986 6.000000
v 5.000000 0.523986 5.000000
v 5.000000 0.523986 4.000000
v 5.000000 0.000000 3.000000
v 5.000000 0.000000 2.000000
v 5.000000 0.000000 1.000000
v 6.000000 0.000000 9.000000
v 6.000000 0.000000 8.000000
v 6.000000 0.523986 7.000000
v 6.000000 0.523986 6.000000
v 6.000000 0.523986 5.000000
v 6.000000 0.523986 4.000000
v 6.000000 0.000000 3.000000
v 6.000000 0.000000 2.000000
v 6.000000 0.000000 1.000000
v 7.000000 0.000000 9.000000
v 7.000000 0.000000 8.000000
v 7.000000 0.523986 7.000000
v 7.000000 0.523986 6.000000
v 7.000000 0.523986 5.000000
v 7.000000 0.523986 4.000000
v 7.000000 0.000000 3.000000
v 7.000000 0.000000 2.000000
v 7.000000 0.000000 1.000000
v 8.000000 0.000000 9.000000
v 8.000000 0.000000 8.000000
v 8.000000 0.000000 7.000000
v 8.000000 0.000000 6.000000
v 8.000000 0.000000 5.000000
v 8.000000 0.000000 4.000000
v 8.000000 0.000000 3.000000
v 8.000000 0.000000 2.000000
v 8.000000 0.000000 1.000000
v 9.000000 0.000000 9.000000
v 9.000000 0.000000 8.000000
v 9.000000 0.000000 7.000000
v 9.000000 0.000000 6.000000
v 9.000000 0.000000 5.000000
v 9.000000 0.000000 4.000000
v 9.000000 0.000000 3.000000
v 9.000000 0.000000 2.000000
v 9.000000 0.000000 1.000000
vt 0.900000 0.900000
vt 1.000000 0.900000
vt 1.000000 1.000000
vt 0.900000 1.000000
vt 0.000000 0.900000
vt 0.100000 0.900000
vt 0.100000 1.000000
vt 0.000000 1.000000
vt 0.200000 0.900000
vt 0.200000 1.000000
vt 0.300000 0.900000
vt 0.300000 1.000000
vt 0.400000 0.900000
vt 0.400000 1.000000
vt 0.500000 0.900000
vt 0.500000 1.000000
vt 0.600000 0.900000
vt 0.600000 1.000000
vt 0.700000 0.900000
vt 0.700000 1.000000
vt 0.800000 0.900000
vt 0.800000 1.000000
vt 0.000000 0.000000
vt 0.100000 0.000000
vt 0.100000 0.100000
vt 0.000000 0.100000
vt 0.100000 0.200000
vt 0.000000 0.200000
vt 0.100000 0.300000
vt 0.000000 0.300000
vt 0.100000 0.400000
vt 0.000000 0.400000
vt 0.100000 0.500000
vt 0.000000 0.500000
vt 0.100000 0.600000
vt 0.000000 0.600000
vt 0.100000 0.700000
vt 0.000000 0.700000
vt 0.100000 0.800000
vt 0.000000 0.800000
vt 0.200000 0.000000
vt 0.200000 0.100000
vt 0.200000 0.200000
vt 0.200000 0.300000
vt 0.200000 0.400000
vt 0.200000 0.500000
vt 0.200000 0.600000
vt 0.200000 0.700000
vt 0.200000 0.800000
vt 0.300000 0.000000
vt 0.300000 0.100000
vt 0.300000 0.200000
vt 0.300000 0.300000
vt 0.300000 0.400000
vt 0.300000 0.500000
vt 0.300000 0.600000
vt 0.300000 0.700000
vt 0.300000 0.800000
vt 0.400000 0.000000
vt 0.400000 0.100000
vt 0.400000 0.200000
vt 0.400000 0.300000
vt 0.400000 0.400000
vt 0.400000 0.500000
vt 0.400000 0.600000
vt 0.400000 0.700000
vt 0.400000 0.800000
vt 0.500000 0.000000
vt 0.500000 0.100000
vt 0.500000 0.200000
vt 0.500000 0.300000
vt 0.500000 0.400000
vt 0.500000 0.500000
vt 0.500000 0.600000
vt 0.500000 0.700000
vt 0.500000 0.800000
vt 0.600000 0.000000
vt 0.600000 0.100000
vt 0.600000 0.200000
vt 0.600000 0.300000
vt 0.600000 0.400000
vt 0.600000 0.500000
vt 0.600000 0.600000
vt 0.600000 0.700000
vt 0.600000 0.800000
vt 0.700000 0.000000
vt 0.700000 0.100000
vt 0.700000 0.200000
vt 0.700000 0.300000
vt 0.700000 0.400000
vt 0.700000 0.500000
vt 0.700000 0.600000
vt 0.700000 0.700000
vt 0.700000 0.800000
vt 0.800000 0.000000
vt 0.800000 0.100000
vt 0.800000 0.200000
vt 0.800000 0.300000
vt 0.800000 0.400000
vt 0.800000 0.500000
vt 0.800000 0.600000
vt 0.800000 0.700000
vt 0.800000 0.800000
vt 0.900000 0.000000
vt 0.900000 0.100000
vt 0.900000 0.200000
vt 0.900000 0.300000
vt 0.900000 0.400000
vt 0.900000 0.500000
vt 0.900000 0.600000
vt 0.900000 0.700000
vt 0.900000 0.800000
vt 1.000000 0.000000
vt 1.000000 0.100000
vt 1.000000 0.200000
vt 1.000000 0.300000
vt 1.000000 0.400000
vt 1.000000 0.500000
vt 1.000000 0.600000
vt 1.000000 0.700000
vt 1.000000 0.800000
vn 0.0000 1.0000 0.0000
vn -0.2457 0.9377 0.2457
vn -0.4641 0.8858 0.0000
vn -0.2457 0.9377 -0.2457
vn 0.0000 0.8858 0.4641
vn 0.0000 0.8858 -0.4641
vn 0.2457 0.9377 0.2457
vn 0.4641 0.8858 0.0000
vn 0.2457 0.9377 -0.2457
usemtl None
s off
f 121/1/1 31/2/1 4/3/1 32/4/1
f 5/5/1 49/6/1 40/7/1 3/8/1
f 49/6/1 58/9/1 39/10/1 40/7/1
f 58/9/1 67/11/1 38/12/1 39/10/1
f 67/11/1 76/13/1 37/14/1 38/12/1
f 76/13/1 85/15/1 36/16/1 37/14/1
f 85/15/1 94/17/1 35/18/1 36/16/1
f 94/17/1 103/19/1 34/20/1 35/18/1
f 103/19/1 112/21/1 33/22/1 34/20/1
f 112/21/1 121/1/1 32/4/1 33/22/1
f 1/23/1 14/24/1 41/25/1 13/26/1
f 13/26/1 41/25/1 42/27/1 12/28/1
f 12/28/1 42/27/1 43/29/1 11/30/1
f 11/30/1 43/29/1 44/31/1 10/32/1
f 10/32/1 44/31/1 45/33/1 9/34/1
f 9/34/1 45/33/1 46/35/1 8/36/1
f 8/36/1 46/35/1 47/37/1 7/38/1
f 7/38/1 47/37/1 48/39/1 6/40/1
f 6/40/1 48/39/1 49/6/1 5/5/1
f 14/24/1 15/41/1 50/42/1 41/25/1
f 41/25/1 50/42/1 51/43/1 42/27/1
f 42/27/1 51/43/1 52/44/1 43/29/1
f 43/29/1 52/44/1 53/45/1 44/31/1
f 44/31/1 53/45/1 54/46/1 45/33/1
f 45/33/1 54/46/1 55/47/1 46/35/1
f 46/35/1 55/47/1 56/48/1 47/37/1
f 47/37/1 56/48/1 57/49/1 48/39/1
f 48/39/1 57/49/1 58/9/1 49/6/1
f 15/41/1 16/50/1 59/51/1 50/42/1
f 50/42/1 59/51/1 60/52/1 51/43/1
f 51/43/1 60/52/1 61/53/1 52/44/1
f 52/44/1 61/53/1 62/54/1 53/45/1
f 53/45/1 62/54/1 63/55/1 54/46/1
f 54/46/1 63/55/1 64/56/1 55/47/1
f 55/47/1 64/56/1 65/57/1 56/48/1
f 56/48/1 65/57/1 66/58/1 57/49/1
f 57/49/1 66/58/1 67/11/1 58/9/1
f 16/50/1 17/59/1 68/60/1 59/51/1
f 59/51/1 68/60/1 69/61/1 60/52/1
f 60/52/2 69/61/2 70/62/2 61/53/2
f 61/53/3 70/62/3 71/63/3 62/54/3
f 62/54/3 71/63/3 72/64/3 63/55/3
f 63/55/3 72/64/3 73/65/3 64/56/3
f 64/56/4 73/65/4 74/66/4 65/57/4
f 65/57/1 74/66/1 75/67/1 66/58/1
f 66/58/1 75/67/1 76/13/1 67/11/1
f 17/59/1 18/68/1 77/69/1 68/60/1
f 68/60/1 77/69/1 78/70/1 69/61/1
f 69/61/5 78/70/5 79/71/5 70/62/5
f 70/62/1 79/71/1 80/72/1 71/63/1
f 71/63/1 80/72/1 81/73/1 72/64/1
f 72/64/1 81/73/1 82/74/1 73/65/1
f 73/65/6 82/74/6 83/75/6 74/66/6
f 74/66/1 83/75/1 84/76/1 75/67/1
f 75/67/1 84/76/1 85/15/1 76/13/1
f 18/68/1 19/77/1 86/78/1 77/69/1
f 77/69/1 86/78/1 87/79/1 78/70/1
f 78/70/5 87/79/5 88/80/5 79/71/5
f 79/71/1 88/80/1 89/81/1 80/72/1
f 80/72/1 89/81/1 90/82/1 81/73/1
f 81/73/1 90/82/1 91/83/1 82/74/1
f 82/74/6 91/83/6 92/84/6 83/75/6
f 83/75/1 92/84/1 93/85/1 84/76/1
f 84/76/1 93/85/1 94/17/1 85/15/1
f 19/77/1 20/86/1 95/87/1 86/78/1
f 86/78/1 95/87/1 96/88/1 87/79/1
f 87/79/5 96/88/5 97/89/5 88/80/5
f 88/80/1 97/89/1 98/90/1 89/81/1
f 89/81/1 98/90/1 99/91/1 90/82/1
f 90/82/1 99/91/1 100/92/1 91/83/1
f 91/83/6 100/92/6 101/93/6 92/84/6
f 92/84/1 101/93/1 102/94/1 93/85/1
f 93/85/1 102/94/1 103/19/1 94/17/1
f 20/86/1 21/95/1 104/96/1 95/87/1
f 95/87/1 104/96/1 105/97/1 96/88/1
f 96/88/7 105/97/7 106/98/7 97/89/7
f 97/89/8 106/98/8 107/99/8 98/90/8
f 98/90/8 107/99/8 108/100/8 99/91/8
f 99/91/8 108/100/8 109/101/8 100/92/8
f 100/92/9 109/101/9 110/102/9 101/93/9
f 101/93/1 110/102/1 111/103/1 102/94/1
f 102/94/1 111/103/1 112/21/1 103/19/1
f 21/95/1 22/104/1 113/105/1 104/96/1
f 104/96/1 113/105/1 114/106/1 105/97/1
f 105/97/1 114/106/1 115/107/1 106/98/1
f 106/98/1 115/107/1 116/108/1 107/99/1
f 107/99/1 116/108/1 117/109/1 108/100/1
f 108/100/1 117/109/1 118/110/1 109/101/1
f 109/101/1 118/110/1 119/111/1 110/102/1
f 110/102/1 119/111/1 120/112/1 111/103/1
f 111/103/1 120/112/1 121/1/1 112/21/1
f 22/104/1 2/113/1 23/114/1 113/105/1
f 113/105/1 23/114/1 24/115/1 114/106/1
f 114/106/1 24/115/1 25/116/1 115/107/1
f 115/107/1 25/116/1 26/117/1 116/108/1
f 116/108/1 26/117/1 27/118/1 117/109/1
f 117/109/1 27/118/1 28/119/1 118/110/1
f 118/110/1 28/119/1 29/120/1 119/111/1
f 119/111/1 29/120/1 30/121/1 120/112/1
f 120/112/1 30/121/1 31/2/1 121/1/1
